<svg width="512" height="512" viewBox="0 0 512 512" fill="none" xmlns="http://www.w3.org/2000/svg">
<rect width="512" height="512" rx="47.4074" fill="#F0F8FF"/>
<path fill-rule="evenodd" clip-rule="evenodd" d="M67.3498 124.297C66.4506 126.695 66.1055 187.47 66.59 259.356L67.4648 390.058L120.617 391.02L173.769 391.982V259.447C173.769 113.775 173.18 117.281 194.312 137.023L205.138 147.134V269.467V391.801H264.267H323.397L335.606 381.084L347.816 370.362L360.272 379.864C385.228 398.901 420.611 393.37 437.718 367.759C444.793 357.167 445.63 351.698 445.63 316.004C445.63 270.59 440.977 255.822 423.253 245.017C407.785 235.582 380.286 236.217 365.11 246.356C345.024 259.775 341.078 272.371 341.075 323.132C341.068 366.888 340.894 367.898 331.846 376.284C324.593 383.007 318.873 384.83 305.053 384.83H287.484L296.608 375.246C311.087 360.042 313.979 340.482 312.645 266.902C311.547 206.445 310.808 199.756 304.255 190.983C289.404 171.103 280.203 167.088 246.492 165.767C216.228 164.582 215.036 164.223 211.816 155.31C199.924 122.408 193.748 119.941 123.235 119.941C83.0341 119.941 68.5662 121.07 67.3498 124.297Z" fill="#374B73"/>
</svg>
