<svg width="110" height="17" viewBox="0 0 110 17" fill="none" xmlns="http://www.w3.org/2000/svg">
<path fill-rule="evenodd" clip-rule="evenodd" d="M0.0587851 0.261487C0.00481412 0.40541 -0.0158962 4.05305 0.0131812 8.3676L0.0656894 16.2122L3.25584 16.27L6.44598 16.3277V8.37303C6.44598 -0.370056 6.41063 -0.159612 7.67895 1.02524L8.32869 1.6321V8.97446V16.3168H11.8776H15.4265L16.1593 15.6736L16.8921 15.0301L17.6397 15.6003C19.1375 16.7429 21.2612 16.4109 22.2879 14.8738C22.7126 14.2381 22.7628 13.9099 22.7628 11.7676C22.7628 9.04182 22.4835 8.15548 21.4198 7.50699C20.4914 6.94071 18.8409 6.97878 17.9301 7.58732C16.7245 8.3927 16.4877 9.14871 16.4875 12.1954C16.4871 14.8215 16.4766 14.8822 15.9336 15.3855C15.4983 15.789 15.155 15.8984 14.3255 15.8984H13.271L13.8187 15.3232C14.6876 14.4107 14.8613 13.2367 14.7812 8.82049C14.7153 5.19188 14.6709 4.79045 14.2776 4.26392C13.3863 3.0707 12.834 2.82971 10.8107 2.75043C8.99433 2.6793 8.92279 2.65776 8.7295 2.12286C8.01574 0.148105 7.64506 0 3.41294 0C1.00014 0 0.131792 0.0677775 0.0587851 0.261487ZM51.5264 0.279477C50.0663 0.660621 49.3136 1.09553 48.439 2.06345C46.9725 3.68676 46.8788 5.94706 48.2124 7.53188C48.9492 8.40755 49.6604 8.73995 52.497 9.53404C53.8361 9.90891 55.2232 10.3664 55.5795 10.5505C56.8664 11.2161 56.5457 12.8137 55.0697 13.0907C53.4857 13.3877 51.1584 13.0817 49.6565 12.3788C48.8758 12.0136 48.2105 11.7146 48.1781 11.7146C48.1457 11.7146 47.8685 12.3412 47.5618 13.1068C47.1177 14.2163 47.0602 14.5364 47.2782 14.6835C49.3998 16.1131 53.6537 16.7498 56.1428 16.0103C57.9056 15.4867 59.1158 14.5745 59.6934 13.3338C60.2994 12.0322 60.3392 10.8733 59.8172 9.72461C59.1472 8.24961 57.7793 7.51284 53.7737 6.46982C51.0932 5.77155 50.466 5.04064 51.5086 3.82943C51.9992 3.25918 52.0724 3.24265 54.0712 3.24914C55.7401 3.25458 56.3212 3.34348 57.1488 3.71981C57.7101 3.97503 58.2387 4.1838 58.3236 4.1838C58.555 4.1838 59.4206 1.68628 59.2991 1.36936C58.9485 0.455617 53.6813 -0.282825 51.5264 0.279477ZM65.6467 0.379469C63.9337 0.827136 62.8858 1.62101 62.2053 2.98681C61.5962 4.2089 61.5288 5.31865 61.9959 6.43636C62.6798 8.07348 63.522 8.59645 67.1102 9.61207C68.4329 9.98652 69.7678 10.4235 70.0765 10.5831C71.1149 11.1201 71.0932 12.3204 70.0353 12.8675C68.707 13.5543 64.7478 13.0551 63.2603 12.0131C63.026 11.8489 62.7733 11.7146 62.6988 11.7146C62.5499 11.7146 61.4629 14.1285 61.4629 14.4594C61.4629 14.7491 63.5611 15.6784 64.9825 16.0181C66.5619 16.3957 69.2971 16.3907 70.5865 16.0076C73.1326 15.2516 74.5111 13.6291 74.5111 11.3891C74.5111 8.93011 73.2594 7.8647 69.0111 6.70746C67.6175 6.32778 66.2433 5.83326 65.9574 5.60817C65.2884 5.08206 65.2963 4.38922 65.9785 3.74952C66.4755 3.28365 66.6833 3.24307 68.5411 3.25123C70.1656 3.25834 70.7631 3.35081 71.5829 3.72191C72.1442 3.97586 72.6435 4.1838 72.6927 4.1838C72.8299 4.1838 73.8051 1.90886 73.8051 1.5888C73.8051 1.21184 71.9609 0.436998 70.4911 0.196221C68.7745 -0.0849304 67.1949 -0.0251038 65.6467 0.379469ZM35.8468 0.402691C35.7811 0.509169 35.2203 1.75657 34.6006 3.17446C33.981 4.59256 32.7506 7.35302 31.8663 9.30895C29.6341 14.2462 29.0385 15.6315 29.0385 15.8869C29.0385 16.025 29.7284 16.1076 30.8817 16.1076H32.7248L33.3593 14.4864L33.994 12.8652H37.7194H41.4449L42.0988 14.4341L42.7528 16.003L44.6815 16.0633C45.7425 16.0963 46.6104 16.0857 46.6104 16.0396C46.6104 15.8924 45.4329 13.1292 44.6334 11.4008C44.2077 10.4804 42.9599 7.70342 41.8606 5.22975C40.7611 2.75608 39.7683 0.6146 39.6542 0.470677C39.4087 0.161076 36.0334 0.101039 35.8468 0.402691ZM77.0856 0.345373C77.0072 0.423819 76.943 4.00243 76.943 8.29794V16.1076H83.1233H89.3036L89.2421 14.591L89.1806 13.0744L84.9445 13.0177L80.7084 12.9612V11.2019V9.44283L82.6434 9.46668C83.7075 9.47986 85.3549 9.47317 86.3042 9.45204L88.03 9.41355V8.05381V6.69408H84.3692H80.7084V5.02495V3.35583L84.8399 3.29913L88.9714 3.24244V1.77811V0.313785L83.0999 0.25835C79.8704 0.227808 77.1641 0.266927 77.0856 0.345373ZM92.1 0.471514C92.0446 0.615855 92.0241 4.16957 92.0542 8.36843L92.1092 16.003L93.8309 16.0637L95.5527 16.1244L95.609 11.5734L95.6655 7.02271L96.9206 9.09055C97.6109 10.2277 98.6073 11.8719 99.1347 12.7438L100.094 14.3295H101.017H101.939L104.189 10.5743L106.439 6.81938V11.4634V16.1076H108.219H110L109.945 8.2107L109.89 0.313785L108.401 0.252911L106.912 0.192036L104.028 5.02119C102.442 7.67748 101.073 9.77586 100.987 9.68445C100.9 9.59303 99.8627 7.91784 98.6812 5.96191C97.4997 4.00599 96.2171 1.91137 95.8311 1.30744L95.1297 0.20919H93.6652C92.6839 0.20919 92.1674 0.295794 92.1 0.471514ZM38.9878 7.04572L40.1101 9.72733L38.8545 9.78988C38.164 9.82418 37.0986 9.82418 36.4873 9.78988L35.3755 9.72733L36.534 6.95933C37.1712 5.43685 37.7314 4.23024 37.7789 4.27773C37.8266 4.32542 38.3704 5.57094 38.9878 7.04572Z" fill="#374B73"/>
</svg>
